<svg xmlns="http://www.w3.org/2000/svg" xml:space="preserve" id="user-setting" x="0" y="0" version="1.1" viewBox="0 0 52 52">
  <g fill="none" stroke="#000" stroke-linecap="round" stroke-linejoin="round" stroke-miterlimit="10" stroke-width="2">
    <path d="M34.405 34.403a11.843 11.843 0 0 1-8.4 3.48c-3.29 0-6.26-1.33-8.41-3.48a9.578 9.578 0 0 1 8.41-4.96c3.62 0 6.77 2 8.4 4.96z"></path>
    <path d="M26 29.448c-2.329 0-4.22-2.792-4.22-5.12s1.891-4.221 4.22-4.221 4.22 1.892 4.22 4.22-1.891 5.121-4.22 5.121z"></path>
  </g>
  <path fill="none" stroke="#000" stroke-linecap="round" stroke-linejoin="round" stroke-miterlimit="10" stroke-width="2" d="M37.885 26.003c0 3.28-1.33 6.25-3.48 8.4a11.843 11.843 0 0 1-8.4 3.48c-3.29 0-6.26-1.33-8.41-3.48a11.843 11.843 0 0 1-3.48-8.4c0-6.57 5.32-11.89 11.89-11.89 6.56 0 11.88 5.32 11.88 11.89z"></path>
  <path fill="none" stroke="#000" stroke-linecap="round" stroke-linejoin="round" stroke-miterlimit="10" stroke-width="2" d="M50 23.426v5.148l-4.69 1.784a19.743 19.743 0 0 1-2.579 6.208l2.05 4.58-3.629 3.64-4.592-2.06a19.56 19.56 0 0 1-6.196 2.579l-1.796 4.689h-5.136l-1.796-4.69a19.56 19.56 0 0 1-6.196-2.579l-4.592 2.062-3.629-3.64 2.05-4.581a19.743 19.743 0 0 1-2.58-6.208L2 28.574v-5.148l4.69-1.784a19.511 19.511 0 0 1 2.579-6.208l-2.05-4.58 3.629-3.64 4.592 2.06a19.56 19.56 0 0 1 6.196-2.579l1.796-4.689h5.136l1.796 4.69a19.56 19.56 0 0 1 6.196 2.579l4.592-2.062 3.629 3.64-2.05 4.581a19.511 19.511 0 0 1 2.58 6.208L50 23.426z"></path>
</svg>
